<mxfile host="app.diagrams.net" modified="2020-08-31T19:32:03.878Z" agent="5.0 (X11; Linux x86_64) AppleWebKit/537.36 (KHTML, like Gecko) Chrome/84.0.4147.125 Safari/537.36" etag="7OJlWtFpd5FM3sBVyUCJ" version="13.6.5" type="github">
  <diagram id="prtHgNgQTEPvFCAcTncT" name="Page-1">
    <mxGraphModel dx="953" dy="1609" grid="1" gridSize="10" guides="1" tooltips="1" connect="1" arrows="1" fold="1" page="1" pageScale="1" pageWidth="827" pageHeight="1169" math="0" shadow="0">
      <root>
        <mxCell id="0" />
        <mxCell id="1" parent="0" />
        <mxCell id="dNxyNK7c78bLwvsdeMH5-19" value="TBD Pipeline" style="swimlane;html=1;childLayout=stackLayout;resizeParent=1;resizeParentMax=0;horizontal=0;startSize=20;horizontalStack=0;labelPosition=center;verticalLabelPosition=bottom;align=center;verticalAlign=bottom;" parent="1" vertex="1">
          <mxGeometry x="10" y="120" width="1040" height="410" as="geometry" />
        </mxCell>
        <mxCell id="hf0FSqhI1aQTpMX49URd-41" style="edgeStyle=orthogonalEdgeStyle;rounded=0;orthogonalLoop=1;jettySize=auto;html=1;exitX=1;exitY=0;exitDx=0;exitDy=0;entryX=1;entryY=1;entryDx=0;entryDy=0;fontSize=11;" parent="dNxyNK7c78bLwvsdeMH5-19" source="dNxyNK7c78bLwvsdeMH5-22" target="dNxyNK7c78bLwvsdeMH5-21" edge="1">
          <mxGeometry relative="1" as="geometry" />
        </mxCell>
        <mxCell id="dNxyNK7c78bLwvsdeMH5-21" value="Master Branch" style="swimlane;html=1;startSize=20;horizontal=0;" parent="dNxyNK7c78bLwvsdeMH5-19" vertex="1">
          <mxGeometry x="20" width="1020" height="260" as="geometry" />
        </mxCell>
        <mxCell id="3yQH3kzM2n0dqzZq4gv7-6" value="&amp;lt;repo&amp;gt;: 4-master-abcd" style="text;html=1;strokeColor=none;fillColor=none;align=center;verticalAlign=middle;whiteSpace=wrap;rounded=0;fontSize=11;" parent="dNxyNK7c78bLwvsdeMH5-21" vertex="1">
          <mxGeometry x="770" y="7" width="130" height="20" as="geometry" />
        </mxCell>
        <mxCell id="lN1NgErGmyBV3qdizG2d-3" value="Deploy Production" style="aspect=fixed;html=1;points=[];align=center;image;fontSize=12;image=https://argoproj.github.io/argo-cd/assets/logo.png;gradientColor=none;labelPosition=center;verticalLabelPosition=bottom;verticalAlign=top;" vertex="1" parent="dNxyNK7c78bLwvsdeMH5-21">
          <mxGeometry x="810" y="27" width="50" height="48" as="geometry" />
        </mxCell>
        <mxCell id="lN1NgErGmyBV3qdizG2d-1" value="Deploy Staging" style="aspect=fixed;html=1;points=[];align=left;image;fontSize=12;image=https://argoproj.github.io/argo-cd/assets/logo.png;gradientColor=none;labelPosition=right;verticalLabelPosition=middle;verticalAlign=bottom;" vertex="1" parent="dNxyNK7c78bLwvsdeMH5-21">
          <mxGeometry x="539.5500000000001" y="27" width="50" height="48" as="geometry" />
        </mxCell>
        <mxCell id="lN1NgErGmyBV3qdizG2d-2" value="Auth" style="aspect=fixed;html=1;points=[];align=center;image;fontSize=12;image=https://argoproj.github.io/argo-cd/assets/logo.png;gradientColor=none;labelPosition=center;verticalLabelPosition=bottom;verticalAlign=top;" vertex="1" parent="dNxyNK7c78bLwvsdeMH5-21">
          <mxGeometry x="700" y="27" width="50" height="48" as="geometry" />
        </mxCell>
        <mxCell id="P4PkZlXVBX1jx9W1RWOr-56" value="Push" style="aspect=fixed;html=1;points=[];align=center;image;fontSize=12;image=https://miro.medium.com/max/256/0*AqO_2lNemh_Fl9Gm.png;gradientColor=none;" parent="dNxyNK7c78bLwvsdeMH5-21" vertex="1">
          <mxGeometry x="237" y="64.19" width="45" height="45" as="geometry" />
        </mxCell>
        <mxCell id="P4PkZlXVBX1jx9W1RWOr-55" value="Build" style="aspect=fixed;html=1;points=[];align=center;image;fontSize=12;image=https://miro.medium.com/max/256/0*AqO_2lNemh_Fl9Gm.png;gradientColor=none;" parent="dNxyNK7c78bLwvsdeMH5-21" vertex="1">
          <mxGeometry x="171" y="64.19000000000003" width="45" height="45" as="geometry" />
        </mxCell>
        <mxCell id="P4PkZlXVBX1jx9W1RWOr-54" value="Push" style="aspect=fixed;html=1;points=[];align=center;image;fontSize=12;image=https://encrypted-tbn0.gstatic.com/images?q=tbn%3AANd9GcTQdbURp-q7MlMqABiqVA973eF-vG5WU_X3Aw&amp;usqp=CAU;gradientColor=none;" parent="dNxyNK7c78bLwvsdeMH5-21" vertex="1">
          <mxGeometry x="30.5" y="62.50000000000006" width="59" height="48.38" as="geometry" />
        </mxCell>
        <mxCell id="hf0FSqhI1aQTpMX49URd-17" style="edgeStyle=orthogonalEdgeStyle;rounded=0;orthogonalLoop=1;jettySize=auto;html=1;exitX=1;exitY=0.5;exitDx=0;exitDy=0;entryX=0;entryY=0.5;entryDx=0;entryDy=0;" parent="dNxyNK7c78bLwvsdeMH5-21" edge="1">
          <mxGeometry relative="1" as="geometry">
            <Array as="points">
              <mxPoint x="500" y="85" />
              <mxPoint x="500" y="155" />
            </Array>
            <mxPoint x="409.9999999999934" y="85" as="sourcePoint" />
            <mxPoint x="542.9999999999873" y="155" as="targetPoint" />
          </mxGeometry>
        </mxCell>
        <mxCell id="hf0FSqhI1aQTpMX49URd-19" style="edgeStyle=orthogonalEdgeStyle;rounded=0;orthogonalLoop=1;jettySize=auto;html=1;exitX=1;exitY=0.5;exitDx=0;exitDy=0;entryX=0;entryY=0.5;entryDx=0;entryDy=0;" parent="dNxyNK7c78bLwvsdeMH5-21" edge="1">
          <mxGeometry relative="1" as="geometry">
            <Array as="points">
              <mxPoint x="500" y="85" />
              <mxPoint x="500" y="205" />
            </Array>
            <mxPoint x="409.9999999999934" y="85" as="sourcePoint" />
            <mxPoint x="542.9999999999873" y="205" as="targetPoint" />
          </mxGeometry>
        </mxCell>
        <mxCell id="hf0FSqhI1aQTpMX49URd-13" value="" style="edgeStyle=orthogonalEdgeStyle;rounded=0;orthogonalLoop=1;jettySize=auto;html=1;" parent="dNxyNK7c78bLwvsdeMH5-21" target="lN1NgErGmyBV3qdizG2d-1" edge="1">
          <mxGeometry relative="1" as="geometry">
            <Array as="points">
              <mxPoint x="500" y="85" />
              <mxPoint x="500" y="55" />
            </Array>
            <mxPoint x="410" y="85" as="sourcePoint" />
            <mxPoint x="539.5500000000002" y="55" as="targetPoint" />
          </mxGeometry>
        </mxCell>
        <mxCell id="hf0FSqhI1aQTpMX49URd-15" value="" style="edgeStyle=orthogonalEdgeStyle;rounded=0;orthogonalLoop=1;jettySize=auto;html=1;" parent="dNxyNK7c78bLwvsdeMH5-21" source="P4PkZlXVBX1jx9W1RWOr-58" edge="1">
          <mxGeometry relative="1" as="geometry">
            <Array as="points">
              <mxPoint x="500" y="85" />
              <mxPoint x="500" y="105" />
            </Array>
            <mxPoint x="410" y="85" as="sourcePoint" />
            <mxPoint x="542.9999999999998" y="105" as="targetPoint" />
          </mxGeometry>
        </mxCell>
        <mxCell id="P4PkZlXVBX1jx9W1RWOr-53" value="Unit Test" style="aspect=fixed;html=1;points=[];align=center;image;fontSize=12;image=https://miro.medium.com/max/256/0*AqO_2lNemh_Fl9Gm.png;gradientColor=none;" parent="dNxyNK7c78bLwvsdeMH5-21" vertex="1">
          <mxGeometry x="104" y="64.19" width="45" height="45" as="geometry" />
        </mxCell>
        <mxCell id="P4PkZlXVBX1jx9W1RWOr-57" value="Sec Test" style="aspect=fixed;html=1;points=[];align=center;image;fontSize=12;image=https://www.pinclipart.com/picdir/middle/204-2046821_harbor-icon-color-clipart.png;gradientColor=none;" parent="dNxyNK7c78bLwvsdeMH5-21" vertex="1">
          <mxGeometry x="304" y="64.19" width="45" height="47" as="geometry" />
        </mxCell>
        <mxCell id="P4PkZlXVBX1jx9W1RWOr-58" value="Helm" style="aspect=fixed;html=1;points=[];align=center;image;fontSize=12;image=https://miro.medium.com/max/256/0*AqO_2lNemh_Fl9Gm.png;gradientColor=none;" parent="dNxyNK7c78bLwvsdeMH5-21" vertex="1">
          <mxGeometry x="370" y="64.19000000000003" width="45" height="45" as="geometry" />
        </mxCell>
        <mxCell id="3yQH3kzM2n0dqzZq4gv7-1" value="&amp;lt;repo&amp;gt;: 4-master-abcd" style="text;html=1;strokeColor=none;fillColor=none;align=center;verticalAlign=middle;whiteSpace=wrap;rounded=0;fontSize=11;" parent="dNxyNK7c78bLwvsdeMH5-21" vertex="1">
          <mxGeometry x="154" width="130" height="20" as="geometry" />
        </mxCell>
        <mxCell id="3yQH3kzM2n0dqzZq4gv7-2" value="Commit: abcd" style="text;html=1;strokeColor=none;fillColor=none;align=center;verticalAlign=middle;whiteSpace=wrap;rounded=0;fontSize=11;" parent="dNxyNK7c78bLwvsdeMH5-21" vertex="1">
          <mxGeometry x="20" width="90" height="20" as="geometry" />
        </mxCell>
        <mxCell id="3yQH3kzM2n0dqzZq4gv7-3" value="" style="shape=curlyBracket;whiteSpace=wrap;html=1;rounded=1;fillColor=#66B2FF;fontSize=11;rotation=90;" parent="dNxyNK7c78bLwvsdeMH5-21" vertex="1">
          <mxGeometry x="209" y="-5" width="20" height="120" as="geometry" />
        </mxCell>
        <mxCell id="hf0FSqhI1aQTpMX49URd-25" style="edgeStyle=orthogonalEdgeStyle;rounded=0;orthogonalLoop=1;jettySize=auto;html=1;exitX=1;exitY=0.5;exitDx=0;exitDy=0;fontSize=11;" parent="dNxyNK7c78bLwvsdeMH5-21" target="lN1NgErGmyBV3qdizG2d-3" edge="1">
          <mxGeometry relative="1" as="geometry">
            <mxPoint x="750" y="51" as="sourcePoint" />
            <mxPoint x="790" y="51" as="targetPoint" />
          </mxGeometry>
        </mxCell>
        <mxCell id="hf0FSqhI1aQTpMX49URd-21" value="" style="edgeStyle=orthogonalEdgeStyle;rounded=0;orthogonalLoop=1;jettySize=auto;html=1;fontSize=11;" parent="dNxyNK7c78bLwvsdeMH5-21" source="lN1NgErGmyBV3qdizG2d-1" target="lN1NgErGmyBV3qdizG2d-2" edge="1">
          <mxGeometry relative="1" as="geometry">
            <mxPoint x="589.5500000000002" y="49" as="sourcePoint" />
            <mxPoint x="700" y="51" as="targetPoint" />
          </mxGeometry>
        </mxCell>
        <mxCell id="P4PkZlXVBX1jx9W1RWOr-60" value="" style="endArrow=classic;html=1;" parent="dNxyNK7c78bLwvsdeMH5-21" source="P4PkZlXVBX1jx9W1RWOr-54" target="P4PkZlXVBX1jx9W1RWOr-53" edge="1">
          <mxGeometry width="50" height="50" relative="1" as="geometry">
            <mxPoint x="180" y="225" as="sourcePoint" />
            <mxPoint x="230" y="175" as="targetPoint" />
          </mxGeometry>
        </mxCell>
        <mxCell id="P4PkZlXVBX1jx9W1RWOr-61" value="" style="endArrow=classic;html=1;" parent="dNxyNK7c78bLwvsdeMH5-21" source="P4PkZlXVBX1jx9W1RWOr-53" target="P4PkZlXVBX1jx9W1RWOr-55" edge="1">
          <mxGeometry width="50" height="50" relative="1" as="geometry">
            <mxPoint x="140" y="225" as="sourcePoint" />
            <mxPoint x="190" y="175" as="targetPoint" />
          </mxGeometry>
        </mxCell>
        <mxCell id="P4PkZlXVBX1jx9W1RWOr-62" value="" style="endArrow=classic;html=1;" parent="dNxyNK7c78bLwvsdeMH5-21" source="P4PkZlXVBX1jx9W1RWOr-55" target="P4PkZlXVBX1jx9W1RWOr-56" edge="1">
          <mxGeometry width="50" height="50" relative="1" as="geometry">
            <mxPoint x="180" y="225" as="sourcePoint" />
            <mxPoint x="230" y="175" as="targetPoint" />
          </mxGeometry>
        </mxCell>
        <mxCell id="P4PkZlXVBX1jx9W1RWOr-63" value="" style="endArrow=classic;html=1;" parent="dNxyNK7c78bLwvsdeMH5-21" source="P4PkZlXVBX1jx9W1RWOr-56" target="P4PkZlXVBX1jx9W1RWOr-57" edge="1">
          <mxGeometry width="50" height="50" relative="1" as="geometry">
            <mxPoint x="190" y="215" as="sourcePoint" />
            <mxPoint x="240" y="165" as="targetPoint" />
          </mxGeometry>
        </mxCell>
        <mxCell id="P4PkZlXVBX1jx9W1RWOr-64" value="" style="endArrow=classic;html=1;" parent="dNxyNK7c78bLwvsdeMH5-21" source="P4PkZlXVBX1jx9W1RWOr-57" target="P4PkZlXVBX1jx9W1RWOr-58" edge="1">
          <mxGeometry width="50" height="50" relative="1" as="geometry">
            <mxPoint x="170" y="225" as="sourcePoint" />
            <mxPoint x="220" y="175" as="targetPoint" />
          </mxGeometry>
        </mxCell>
        <mxCell id="P4PkZlXVBX1jx9W1RWOr-65" value="Deploy Test 01" style="aspect=fixed;html=1;points=[];align=left;image;fontSize=12;image=https://helm.sh/img/helm.svg;gradientColor=none;verticalAlign=middle;labelPosition=right;verticalLabelPosition=middle;" parent="dNxyNK7c78bLwvsdeMH5-21" vertex="1">
          <mxGeometry x="543" y="80" width="43.1" height="50" as="geometry" />
        </mxCell>
        <mxCell id="P4PkZlXVBX1jx9W1RWOr-66" value="Deploy Test 02" style="aspect=fixed;html=1;points=[];align=left;image;fontSize=12;image=https://helm.sh/img/helm.svg;gradientColor=none;verticalAlign=middle;labelPosition=right;verticalLabelPosition=middle;" parent="dNxyNK7c78bLwvsdeMH5-21" vertex="1">
          <mxGeometry x="543" y="130" width="43.1" height="50" as="geometry" />
        </mxCell>
        <mxCell id="P4PkZlXVBX1jx9W1RWOr-67" value="Deploy Test 03" style="aspect=fixed;html=1;points=[];align=left;image;fontSize=12;image=https://helm.sh/img/helm.svg;gradientColor=none;verticalAlign=middle;labelPosition=right;verticalLabelPosition=middle;" parent="dNxyNK7c78bLwvsdeMH5-21" vertex="1">
          <mxGeometry x="543" y="180" width="43.1" height="50" as="geometry" />
        </mxCell>
        <mxCell id="dNxyNK7c78bLwvsdeMH5-22" value="Feature Branch" style="swimlane;html=1;startSize=20;horizontal=0;" parent="dNxyNK7c78bLwvsdeMH5-19" vertex="1">
          <mxGeometry x="20" y="260" width="1020" height="150" as="geometry" />
        </mxCell>
        <mxCell id="hf0FSqhI1aQTpMX49URd-39" value="Deploy Feat." style="ellipse;whiteSpace=wrap;html=1;fillColor=#ffe6cc;strokeColor=#d79b00;" parent="dNxyNK7c78bLwvsdeMH5-22" vertex="1">
          <mxGeometry x="450" y="30" width="40" height="40" as="geometry" />
        </mxCell>
        <mxCell id="hf0FSqhI1aQTpMX49URd-37" value="Create Cluster" style="ellipse;whiteSpace=wrap;html=1;" parent="dNxyNK7c78bLwvsdeMH5-22" vertex="1">
          <mxGeometry x="380" y="30" width="40" height="40" as="geometry" />
        </mxCell>
        <mxCell id="hf0FSqhI1aQTpMX49URd-27" value="" style="edgeStyle=orthogonalEdgeStyle;rounded=0;orthogonalLoop=1;jettySize=auto;html=1;" parent="dNxyNK7c78bLwvsdeMH5-22" target="hf0FSqhI1aQTpMX49URd-33" edge="1">
          <mxGeometry relative="1" as="geometry">
            <mxPoint x="280" y="50" as="sourcePoint" />
          </mxGeometry>
        </mxCell>
        <mxCell id="hf0FSqhI1aQTpMX49URd-28" value="" style="edgeStyle=orthogonalEdgeStyle;rounded=0;orthogonalLoop=1;jettySize=auto;html=1;" parent="dNxyNK7c78bLwvsdeMH5-22" target="hf0FSqhI1aQTpMX49URd-31" edge="1">
          <mxGeometry relative="1" as="geometry">
            <mxPoint x="80" y="50" as="sourcePoint" />
          </mxGeometry>
        </mxCell>
        <mxCell id="hf0FSqhI1aQTpMX49URd-29" value="" style="edgeStyle=orthogonalEdgeStyle;rounded=0;orthogonalLoop=1;jettySize=auto;html=1;" parent="dNxyNK7c78bLwvsdeMH5-22" target="hf0FSqhI1aQTpMX49URd-26" edge="1">
          <mxGeometry relative="1" as="geometry">
            <mxPoint x="144" y="50" as="sourcePoint" />
          </mxGeometry>
        </mxCell>
        <mxCell id="hf0FSqhI1aQTpMX49URd-30" value="" style="edgeStyle=orthogonalEdgeStyle;rounded=0;orthogonalLoop=1;jettySize=auto;html=1;" parent="dNxyNK7c78bLwvsdeMH5-22" target="hf0FSqhI1aQTpMX49URd-32" edge="1">
          <mxGeometry relative="1" as="geometry">
            <mxPoint x="214" y="50" as="sourcePoint" />
          </mxGeometry>
        </mxCell>
        <mxCell id="hf0FSqhI1aQTpMX49URd-38" value="" style="edgeStyle=orthogonalEdgeStyle;rounded=0;orthogonalLoop=1;jettySize=auto;html=1;fontSize=11;" parent="dNxyNK7c78bLwvsdeMH5-22" target="hf0FSqhI1aQTpMX49URd-37" edge="1">
          <mxGeometry relative="1" as="geometry">
            <mxPoint x="350" y="50" as="sourcePoint" />
          </mxGeometry>
        </mxCell>
        <mxCell id="hf0FSqhI1aQTpMX49URd-40" value="" style="edgeStyle=orthogonalEdgeStyle;rounded=0;orthogonalLoop=1;jettySize=auto;html=1;fontSize=11;" parent="dNxyNK7c78bLwvsdeMH5-22" source="hf0FSqhI1aQTpMX49URd-37" target="hf0FSqhI1aQTpMX49URd-39" edge="1">
          <mxGeometry relative="1" as="geometry" />
        </mxCell>
        <mxCell id="lN1NgErGmyBV3qdizG2d-4" value="Push" style="aspect=fixed;html=1;points=[];align=center;image;fontSize=12;image=https://miro.medium.com/max/256/0*AqO_2lNemh_Fl9Gm.png;gradientColor=none;" vertex="1" parent="dNxyNK7c78bLwvsdeMH5-22">
          <mxGeometry x="170" y="30" width="45" height="45" as="geometry" />
        </mxCell>
        <mxCell id="lN1NgErGmyBV3qdizG2d-5" value="Build" style="aspect=fixed;html=1;points=[];align=center;image;fontSize=12;image=https://miro.medium.com/max/256/0*AqO_2lNemh_Fl9Gm.png;gradientColor=none;" vertex="1" parent="dNxyNK7c78bLwvsdeMH5-22">
          <mxGeometry x="104" y="30" width="45" height="45" as="geometry" />
        </mxCell>
        <mxCell id="lN1NgErGmyBV3qdizG2d-6" value="Unit Test" style="aspect=fixed;html=1;points=[];align=center;image;fontSize=12;image=https://miro.medium.com/max/256/0*AqO_2lNemh_Fl9Gm.png;gradientColor=none;" vertex="1" parent="dNxyNK7c78bLwvsdeMH5-22">
          <mxGeometry x="37" y="30" width="45" height="45" as="geometry" />
        </mxCell>
        <mxCell id="lN1NgErGmyBV3qdizG2d-7" value="Sec Test" style="aspect=fixed;html=1;points=[];align=center;image;fontSize=12;image=https://www.pinclipart.com/picdir/middle/204-2046821_harbor-icon-color-clipart.png;gradientColor=none;" vertex="1" parent="dNxyNK7c78bLwvsdeMH5-22">
          <mxGeometry x="237" y="30" width="45" height="47" as="geometry" />
        </mxCell>
        <mxCell id="lN1NgErGmyBV3qdizG2d-8" value="Helm" style="aspect=fixed;html=1;points=[];align=center;image;fontSize=12;image=https://miro.medium.com/max/256/0*AqO_2lNemh_Fl9Gm.png;gradientColor=none;" vertex="1" parent="dNxyNK7c78bLwvsdeMH5-22">
          <mxGeometry x="303" y="30" width="45" height="45" as="geometry" />
        </mxCell>
        <mxCell id="3yQH3kzM2n0dqzZq4gv7-4" value="" style="shape=curlyBracket;whiteSpace=wrap;html=1;rounded=1;fillColor=#66B2FF;fontSize=11;rotation=-90;" parent="dNxyNK7c78bLwvsdeMH5-22" vertex="1">
          <mxGeometry x="220" y="30" width="20" height="120" as="geometry" />
        </mxCell>
        <mxCell id="3yQH3kzM2n0dqzZq4gv7-5" value="&amp;lt;repo&amp;gt;: 5-feature-abcd" style="text;html=1;strokeColor=none;fillColor=none;align=center;verticalAlign=middle;whiteSpace=wrap;rounded=0;fontSize=11;" parent="dNxyNK7c78bLwvsdeMH5-22" vertex="1">
          <mxGeometry x="170" y="90" width="130" height="20" as="geometry" />
        </mxCell>
        <mxCell id="hf0FSqhI1aQTpMX49URd-35" style="edgeStyle=orthogonalEdgeStyle;rounded=0;orthogonalLoop=1;jettySize=auto;html=1;fontSize=11;" parent="dNxyNK7c78bLwvsdeMH5-19" source="P4PkZlXVBX1jx9W1RWOr-54" target="lN1NgErGmyBV3qdizG2d-6" edge="1">
          <mxGeometry relative="1" as="geometry">
            <mxPoint x="85.05882352941171" y="85" as="sourcePoint" />
            <mxPoint x="80" y="290" as="targetPoint" />
          </mxGeometry>
        </mxCell>
        <mxCell id="hf0FSqhI1aQTpMX49URd-36" value="Create Branch" style="edgeLabel;html=1;align=center;verticalAlign=middle;resizable=0;points=[];fontSize=11;" parent="hf0FSqhI1aQTpMX49URd-35" vertex="1" connectable="0">
          <mxGeometry x="-0.1875" y="1" relative="1" as="geometry">
            <mxPoint as="offset" />
          </mxGeometry>
        </mxCell>
        <mxCell id="hf0FSqhI1aQTpMX49URd-43" style="edgeStyle=orthogonalEdgeStyle;rounded=0;orthogonalLoop=1;jettySize=auto;html=1;exitX=0.5;exitY=0;exitDx=0;exitDy=0;fontSize=11;" parent="dNxyNK7c78bLwvsdeMH5-19" source="hf0FSqhI1aQTpMX49URd-39" target="P4PkZlXVBX1jx9W1RWOr-54" edge="1">
          <mxGeometry relative="1" as="geometry">
            <Array as="points">
              <mxPoint x="490" y="170" />
              <mxPoint x="94" y="170" />
            </Array>
            <mxPoint x="94" y="85" as="targetPoint" />
          </mxGeometry>
        </mxCell>
        <mxCell id="hf0FSqhI1aQTpMX49URd-44" value="Merge" style="edgeLabel;html=1;align=center;verticalAlign=middle;resizable=0;points=[];fontSize=11;" parent="hf0FSqhI1aQTpMX49URd-43" vertex="1" connectable="0">
          <mxGeometry x="-0.8612" relative="1" as="geometry">
            <mxPoint x="-196" y="-71" as="offset" />
          </mxGeometry>
        </mxCell>
        <mxCell id="hf0FSqhI1aQTpMX49URd-45" value="Delete Feat. Branch" style="edgeLabel;html=1;align=center;verticalAlign=middle;resizable=0;points=[];fontSize=11;" parent="hf0FSqhI1aQTpMX49URd-43" vertex="1" connectable="0">
          <mxGeometry x="-0.8505" y="1" relative="1" as="geometry">
            <mxPoint y="22" as="offset" />
          </mxGeometry>
        </mxCell>
      </root>
    </mxGraphModel>
  </diagram>
</mxfile>
